<svg xmlns="http://www.w3.org/2000/svg" version="1.1" xmlns:xlink="http://www.w3.org/1999/xlink" width="46" height="46"><svg width="46" height="46" viewBox="0 0 46 46" fill="none" xmlns="http://www.w3.org/2000/svg">
<path d="M21.9399 1.29651C32.6897 1.94784 40.8762 11.1903 40.2249 21.9401C40.1268 23.5589 39.8318 25.1189 39.3682 26.6C39.4401 26.1327 39.4928 25.6582 39.522 25.177C40.035 16.7094 33.5863 9.42884 25.1187 8.9158C16.6512 8.4028 9.37054 14.8515 8.8575 23.3191C8.34453 31.7865 14.7933 39.0662 23.2608 39.5793C24.2898 39.6416 25.3011 39.6005 26.2849 39.4661C24.1691 40.0911 21.9107 40.3663 19.5812 40.2251C8.8314 39.5738 0.644936 30.3313 1.29626 19.5815C1.94758 8.83165 11.1901 0.645189 21.9399 1.29651Z" fill="#F47EFF"></path>
<path d="M18.7003 23.827C26.6858 31.8286 34.0693 36.7402 35.8781 35.0555C36.3268 34.637 36.3932 33.8473 36.1271 32.7664C36.5094 32.2777 36.8691 31.7705 37.2042 31.2459C43.1578 38.7214 46.4977 44.5331 45.213 45.7313C43.3887 47.4267 32.9601 39.2062 21.9181 27.367C20.8071 26.1758 19.7332 24.9921 18.7003 23.827Z" fill="#F47EFF"></path>
</svg><style>@media (prefers-color-scheme: light) { :root { filter: none; } }
@media (prefers-color-scheme: dark) { :root { filter: none; } }
</style></svg>