<svg width="487" height="715" viewBox="0 0 487 715" fill="none" xmlns="http://www.w3.org/2000/svg">
<g clip-path="url(#clip0_5129_156)">
<mask id="mask0_5129_156" style="mask-type:alpha" maskUnits="userSpaceOnUse" x="19" y="0" width="468" height="715">
<path d="M96.1667 0H487V715H59.2547C59.2547 715 35.5128 645.693 59.2547 533.837C82.9966 421.982 -1.54165 331.181 23.7902 191.69C49.1219 52.1994 96.1667 0 96.1667 0Z" fill="white"/>
</mask>
<g mask="url(#mask0_5129_156)">
<path d="M-21 0H487V715H-21V0Z" fill="url(#paint0_linear_5129_156)"/>
<path d="M-21 0H487V715H-21V0Z" fill="black" fill-opacity="0.37"/>
<path d="M487 683.5C468.282 687.244 465.244 690.275 461.5 709C457.756 690.275 454.718 687.244 436 683.5C454.718 679.756 457.756 676.718 461.5 658C465.244 676.718 468.275 679.756 487 683.5Z" fill="white"/>
<path d="M129 12.5C114.686 15.3628 112.363 17.6812 109.5 32C106.637 17.6812 104.314 15.3628 90 12.5C104.314 9.63724 106.637 7.31378 109.5 -7C112.363 7.31378 114.681 9.63724 129 12.5Z" fill="white"/>
<circle cx="486.5" cy="612.5" r="32.5" fill="white"/>
<path d="M301.81 353.801C301.81 393.888 257.295 432.126 218.122 432.126C187.281 432.126 153.306 414.139 140.238 386.933C136.709 379.582 130.363 357.057 143.382 347.837C167.116 331.045 156.141 281.458 201.004 274.579C210.146 273.173 220.812 279.657 231.816 277.373C247.554 274.117 256.234 270.87 265.453 281.169C268.5 300 278.5 296 283.362 308.27C296.931 318.029 301.81 342.095 301.81 353.801Z" fill="#A5E277"/>
<path d="M151.232 388.782C147.549 383.58 133.555 384.331 124.548 390.709C115.531 397.087 114.152 407.299 118.598 411.875C126.728 420.238 134.279 408.581 143.286 402.203C152.303 395.825 154.916 393.985 151.232 388.782Z" fill="#A5E277"/>
<path d="M275.625 320.108C276.722 312.423 289.735 305.115 300.67 306.684C311.599 308.261 317.259 318.352 315.2 325.808C311.429 339.439 299.553 331.388 288.624 329.811C277.695 328.234 274.522 327.8 275.625 320.108Z" fill="#A5E277"/>
<path fill-rule="evenodd" clip-rule="evenodd" d="M-71.8188 353.753C-88.2132 221.592 -5.47926 36.7511 208.786 36.7511V36.7415C423.051 36.7415 595 132.399 595 346.46C595 560.52 428.587 699.888 214.322 699.888C0.0562589 699.888 -56.7359 475.326 -71.8188 353.753ZM-47.1886 346.72C-47.1886 505.577 47.9955 634.115 207.021 634.115H207.031C366.047 634.115 493.167 505.35 484.5 346.72C475.5 182 391.117 98.5864 239.5 84.0001C87.8831 69.4137 -47.1886 187.862 -47.1886 346.72ZM429.333 592.479C417.299 605.177 410.398 612.46 414.5 619.5C426.571 640.216 483.006 591.47 503.5 562C523.995 532.53 538.687 404.518 514 422C494.689 523.509 452.5 568.031 429.333 592.479Z" fill="#F47EFF"/>
<path d="M338.379 542.509C354.432 553.023 329.657 571.593 314.847 580.841C300.534 589.779 256.399 602.476 252.124 593.7C247.849 584.925 282.675 581.44 289.794 572.729C299.965 560.285 325.755 534.241 338.379 542.509Z" fill="#A845BF"/>
<path d="M292.759 8.79428C277.671 -18.9632 347.573 -5.62595 386.229 3.37891C423.589 12.0817 533.077 98.5697 517.419 117.1C506.58 129.929 506.322 111.102 461 74C413 34.7058 304.624 30.6237 292.759 8.79428Z" fill="#A845BF"/>
<path d="M14.9102 639.558C-4.03639 640.914 44.6523 680.829 66.4226 696.472C87.4625 711.59 172 753.5 191 734.5C209 719 160.025 715.7 120.873 699.634C64.5001 676.5 29.8105 638.492 14.9102 639.558Z" fill="#A845BF"/>
<path d="M273.876 521.629C282.907 574.843 324.747 796.005 324.747 796.005L350.491 778.348C350.491 778.348 324.602 670.764 322.15 650.017C319.698 629.27 324.792 629.242 335.872 658.42C346.951 687.598 367.027 764.345 367.027 764.345L429.04 752.204C429.04 752.204 370.897 628.533 352.68 599.581C346.333 627.362 327.248 613.325 324.747 589.04C322.247 564.756 332.975 564.705 342.672 577.088C301.904 512.137 296.118 500.452 296.118 500.452L273.857 521.634L273.876 521.629Z" fill="#A5E277" stroke="white" stroke-width="5.21" stroke-miterlimit="10"/>
<path d="M291.334 298.285C290.506 291.4 281.119 290.183 275.168 293.945C269.124 297.756 264.278 302.747 265.484 305.081C267.388 308.748 271.836 306.38 279.101 305.131C286.366 303.882 291.828 302.397 291.334 298.285Z" fill="white"/>
<path d="M171.581 369.832C168.581 371.2 161.262 375.141 156.286 369.89C153.807 367.269 155.466 361.306 161.522 359.784C165.544 358.782 167 359.466 170.066 360.285C172.545 360.94 174.84 361.874 175.467 359.697C175.795 358.57 175.072 357.048 173.721 355.583C172.092 353.82 171.465 351.335 172.043 349.013C176.576 330.775 206.269 326.96 206.269 308.54C206.269 305.524 208.738 303.01 211.294 303.01C214.814 303.01 216.607 308.231 216.829 309.542C217.331 312.557 219.337 313.232 220.764 313.386C222.365 313.559 223.609 312.605 224.255 311.247C225.277 309.079 227.543 307.788 229.925 308.097C236.715 308.983 240.977 314.58 246.551 318.925C247.062 319.32 247.766 319.33 248.297 318.974C251.441 316.835 254.556 314.571 257.574 316.074C262.598 318.588 254.343 324.87 256.571 329.138C258.799 333.405 257.535 338.396 258.587 342.702C259.214 345.284 261.142 345.159 262.608 348.733C273.168 374.351 254.507 396.971 229.925 398.975C196.76 401.683 191.206 393.445 183.77 385.17C183.066 384.572 181.639 383.233 179.643 382.906C176.624 382.405 175.621 379.389 177.627 376.875C180.52 373.262 183.182 374.957 181.832 372.241C180.636 369.842 177.116 367.327 171.59 369.842L171.581 369.832Z" fill="white"/>
<path d="M280.449 351.614C281.433 346.334 274.759 343.28 269.484 344.687C264.122 346.122 259.387 348.695 259.754 350.699C260.323 353.849 264.151 353.117 269.822 353.859C275.319 354.581 279.871 354.755 280.459 351.604L280.449 351.614Z" fill="white"/>
<path d="M401 208C385.5 183 360.155 150.289 287.74 128.189C239.714 113.526 159.005 107.09 94.6326 142.254C48.0435 167.708 -5.9423 204.298 -26.5607 292.72C-43.9002 367.077 -31.5851 408.523 -24.0437 404.496C-18.431 401.509 -26.2714 336.98 28.2545 379.63C54.9099 400.478 110.246 394.524 63.9558 340.197C-16.5022 245.754 115.878 142.399 149.448 159.345C197.223 183.46 98.5 205.5 71 249C43.5 292.5 94.5555 330.091 107.517 293.693C125.309 243.75 154.983 283.433 144.983 319.002C135.657 352.182 180.858 356.286 220.31 383.811C259.773 411.336 248.383 480.875 212.306 495.943C184.648 507.494 156.584 516.088 127.441 495.23C57.9188 445.45 108.741 404.38 62.4417 409.284C29.2478 412.8 26.239 389.938 2.60209 394.967C-14.9592 398.696 -34.6132 481.877 35.796 542.167C68.4498 570.126 142.803 603.286 215.324 598.932C240.466 597.429 234.94 586.369 223.869 586.369C215.074 586.369 196.953 584.673 184.648 582.852C152.515 578.112 150.827 546.753 197.223 552.707C287.238 564.258 310.393 471.26 342.68 477.917C374.967 484.574 337.646 526.762 366.201 514.315C416.985 492.176 433.009 447.6 441.625 412.8C450.242 378 443.448 311 435 286.5C426.552 262 416.5 233 401 208ZM359 415C342.68 411.763 270.082 395.728 260.583 367.327C251.083 338.916 190.019 341.19 194.802 256.852C197.802 204.038 224.5 175.655 257.5 167.5C290.5 159.345 329.16 180.626 366.201 234.5C394.047 275 426.673 428.423 359 415Z" fill="#A845BF"/>
<path d="M264 268C289.168 191.169 362.291 -29.3947 362.291 -29.3947L464.777 6.21472C464.777 6.21472 341.335 164.359 328.883 188.767C316.432 213.165 315.718 234.688 348.04 207.976C380.15 181.451 557.577 6.90262 557.577 6.90262L603.115 31.9273L293 268C284.992 253.4 277.494 267.382 264 268Z" fill="#A5E277" stroke="white" stroke-width="5.21" stroke-miterlimit="10"/>
<path d="M183.124 516.81C175.505 532.292 171.339 540.838 162.939 539.682C157.886 538.988 154.733 529.759 162.361 514.286C169.979 498.804 185.67 482.84 190.54 483.64C197.194 484.729 190.752 501.338 183.124 516.82V516.81Z" stroke="white" stroke-width="5.21" stroke-linecap="round" stroke-linejoin="round"/>
<path d="M417.507 358.04C456.809 393.168 458.23 405.788 483.619 402.26C503.132 399.548 508.685 360.653 473.159 326.99C437.632 293.328 347.942 305.424 338.941 319.502C329.94 333.581 378.205 322.913 417.507 358.04Z" fill="#A5E277"/>
<path d="M409.833 465.547C387.418 456.664 366.987 437.746 367.751 428.172C365.949 427.651 364.117 427.068 362.269 426.408C344.22 419.933 327.989 403.946 330.203 396.75C332.417 389.539 352.222 393.835 370.27 400.325C384.807 405.542 395.969 413.75 398.61 420.516C404.611 421.682 411.116 423.585 417.758 426.208C441.747 435.706 461.001 452.03 457.612 461.558C454.206 471.086 433.837 475.06 409.833 465.563V465.547Z" fill="white"/>
<path d="M259.409 248.365C264.259 222.485 283.83 225.611 275.694 251.528C275.555 251.994 276.118 252.371 276.542 252.121C300.603 237.912 337.488 232.582 345.517 243.954C353.546 255.327 337.883 268.183 318.781 268.723C317.332 268.765 316.973 270.74 318.311 271.304C335.987 278.713 340.021 287.707 333.438 292.792C329.981 295.465 321.666 287.734 295.646 283.295C287.703 281.939 269.47 285.862 258.692 297.161C239.829 322.81 243.717 289.384 250.76 273.211C255.699 261.872 258.365 253.968 259.412 248.383L259.409 248.365Z" fill="white"/>
<path d="M244.5 215.196C236.24 230.559 254.22 247.02 244.089 247.196C238.347 247.296 223.313 226.232 226.092 208.723C228.87 191.205 239.942 184.773 244.987 187.666C257.813 195.037 246.716 211.096 244.508 215.196H244.5Z" fill="white"/>
<path d="M190.498 404.064C193.57 407.594 199.269 404.709 201.166 400.349C203.089 395.93 203.903 391.309 202.342 390.471C199.882 389.146 198.312 392.156 194.728 395.611C191.253 398.957 188.668 401.967 190.498 404.064Z" fill="white"/>
<path d="M85.5807 176.956C98.5242 181.534 119.728 200.259 112.509 204.041C108.505 206.138 100.178 199.723 83.9354 199.144C70.9835 198.683 61.6074 188.847 63.0176 183.899C64.4697 178.801 72.2594 172.235 85.5891 176.956H85.5807Z" stroke="white" stroke-width="5.21" stroke-linecap="round" stroke-linejoin="round"/>
<path d="M139 196.864C136.862 198.228 134.572 199.607 132.188 201C127.97 194.561 122.259 185.697 115.004 177.071C110.569 171.787 105.554 166.604 99.9587 162.114C99.4587 161.71 98.9513 161.305 98.4585 160.908C68.5561 136.683 52.8947 116.233 61.2218 106.509C65.6282 101.363 86.6309 102.214 106.909 127.739C111.895 134.012 116.584 141.765 120.802 149.987C124.23 156.678 127.346 163.666 130.05 170.422C134.028 180.341 137.108 189.739 138.993 196.871L139 196.864Z" fill="white"/>
</g>
<path d="M53.4364 452.807C25.4689 460.04 10.0299 463.981 10.6762 473.321C11.0674 478.933 26.3845 489.615 54.3519 482.382C82.3194 475.149 109.719 446.882 109.132 441.468C108.327 434.057 81.4038 445.574 53.4364 452.807Z" fill="#A5E277"/>
<path d="M196.011 391.421C170.088 429.182 100.962 480.127 74.5515 497.651C47.5375 515.575 4.37528 529.428 3.71277 554.742C3.04244 580.441 58.6127 581.682 90.5432 557.101C114.621 538.566 115.339 534.792 135.178 509.058C105.374 510.657 119.156 486.59 130.963 475.47C144.561 462.664 162.762 450.657 169.339 454.766C175.022 458.316 174.701 463.289 175.181 473.083C197.294 440.108 213.907 397.707 213.907 397.707C205.074 397.358 201.191 395.016 196.019 391.412L196.011 391.421Z" fill="#A5E277" stroke="white" stroke-width="5.21" stroke-miterlimit="10"/>
</g>
<defs>
<linearGradient id="paint0_linear_5129_156" x1="398.615" y1="34.0768" x2="113.668" y2="676.822" gradientUnits="userSpaceOnUse">
<stop offset="0.134615" stop-color="#145173"/>
<stop offset="1" stop-color="#4361EE"/>
</linearGradient>
<clipPath id="clip0_5129_156">
<rect width="487" height="715" fill="white"/>
</clipPath>
</defs>
</svg>
